<svg height="90" viewBox="0 0 156 90" width="156" xmlns="http://www.w3.org/2000/svg"><g fill="none"><path d="M.854 23.314l2.197-1.648V2.521L.854.847V.642h7.94c7.022 0 9.418 1.985 9.418 5.684 0 2.588-1.952 4.44-4.785 5.354 3.686.662 5.91 2.435 5.91 5.42 0 4.387-3.594 6.393-10.688 6.393H.854zM9.046 11.23c3.104 0 5.36-1.25 5.36-4.718 0-3.256-2.07-4.633-5.876-4.633H6.67v9.351zm-2.375 1.125v9.986h2.408c4.44 0 6.453-1.522 6.453-4.996 0-3.196-1.827-5.023-5.877-5.023zm22.433 11.138h-8.311v-.179l2.197-1.648V2.521L20.793.847V.642h8.801c5.956 0 9.132 2.164 9.132 6.18 0 3.045-2.163 5.209-5.234 6.089l5.598 8.603 3.045 1.8v.179h-7.79v-.179l1.066-1.277-5.393-8.603H26.61v8.232l2.494 1.648zM26.61 1.846v10.416h2.527c3.653 0 5.877-1.37 5.877-5.294-.007-3.679-1.992-5.122-5.665-5.122h-2.74zm16.378 21.468l2.19-1.648V2.521L42.989.847V.642H60.28v5.691h-.126l-3.712-4.42h-7.643v9.403h7.067l2.31-2.647h.125v6.823h-.132l-2.303-2.938H48.8v9.721h7.94l3.746-4.5h.12v5.718H42.987zm27.364.179H63.84v-.179l2.436-1.8V3.289L63.258.847V.642h5.294L81.53 16.736l.728 1.125V2.627L79.551.847V.642h6.723v.205l-2.647 1.827v20.819h-1.032L67.612 5.016v16.498l2.74 1.8zm24.413 0h-6.512v-.179l2.435-1.8V3.289L87.678.847V.642h5.26l13.004 16.074.728 1.125V2.627l-2.707-1.78V.642h6.724v.205l-2.647 1.827v20.819h-1.033L92.025 5.016v16.498l2.74 1.8zm21.639 0h-7.206v-.179l2.647-1.826 7.094-19.192-.609-1.654h3.713l8.1 21.037 2.223 1.615v.179h-8.285v-.179l2.164-1.615-2.316-6.18h-8.464l-2.098 5.995 3.037 1.82zm3.197-19.51l-3.653 10.285h7.524l-3.871-10.284zm19.965 19.51h-6.518v-.179l2.435-1.8V3.289L132.485.847V.642h5.294l12.971 16.094.728 1.112V2.628L148.77.847V.641h6.73v.205l-2.647 1.827v20.819h-1.032L136.833 5.016v16.498l2.733 1.8z" fill="#000"/><path d="M7.663 86.625H.807v-.146l1.76-1.323V69.75l-1.76-1.324v-.145h13.977v4.58h-.12L11.7 69.28H5.48v7.788h5.485l1.86-2.13h.126v5.512h-.126l-1.86-2.383H5.48v7.101l2.184 1.324zm8.153-9.06a9.311 9.311 0 0 1 9.503-9.549c5.215 0 9.45 3.772 9.45 9.324 0 6.075-4.672 9.53-9.496 9.53-5.347 0-9.457-3.819-9.457-9.305zm15.883.345c0-4.897-2.568-8.967-6.539-8.967-3.818 0-6.24 3.183-6.24 8.007 0 4.95 2.541 9.013 6.512 9.013 3.851 0 6.267-3.183 6.267-8.053zm10.462 8.715h-6.684v-.146l1.76-1.323V69.75l-1.76-1.324v-.145h7.074c4.778 0 7.346 1.734 7.346 4.97 0 2.448-1.74 4.189-4.209 4.897l4.54 6.882 2.448 1.45v.145H46.37v-.146l.86-1.032-4.334-6.929h-2.747v6.618l1.986 1.324zm-1.985-17.411v8.371h2.038c2.938 0 4.725-1.098 4.725-4.255 0-2.938-1.621-4.116-4.56-4.116zm17.239 20.177v-.172c1.886-.953 2.647-2.23 2.647-4.923v-14.56l-1.767-1.323v-.145h6.419v.145l-1.767 1.324v13.566c-.026 3.05-1.641 5.354-5.532 6.088zm10.601-9.132V69.75l-1.76-1.324v-.145h6.558v.145l-1.886 1.324v10.628c0 4.533 2.475 5.46 5.096 5.46 1.932 0 5.095-.583 5.095-5.334V69.876l-1.985-1.47v-.145h4.95v.146l-1.84 1.442v10.383c0 4.48-2.276 6.618-6.929 6.618-3.58.02-7.299-1.35-7.299-6.591zm17.285 6.194V81.82h.126l3.084 3.646a7.55 7.55 0 0 0 2.574.516c2.541 0 3.97-1.323 3.97-3.157 0-1.667-1.323-2.819-4.579-4.533-3.851-2.051-5.175-3.533-5.175-5.697 0-2.919 2.84-4.56 5.877-4.56a31.48 31.48 0 0 1 5.142.443v4.507h-.1l-3.156-3.772a8.113 8.113 0 0 0-2.13-.271c-1.814 0-3.158.96-3.158 2.647 0 1.323.781 2.428 4.163 4.261 3.97 2.131 5.605 3.574 5.605 5.758 0 3.818-3.401 5.294-6.856 5.294-1.588-.033-3.864-.278-5.387-.45zm24.413.172h-6.439v-.146l1.76-1.323V69.214h-3.256l-2.911 3.673h-.126v-4.633h15.479v4.633h-.1l-2.938-3.673h-3.23v15.942l1.761 1.323zm6.121-18.218v-.146h6.44v.146l-1.761 1.323v15.406l1.76 1.324v.145h-6.439v-.145l1.76-1.324V69.75zM133.32 86.87c-5.17 0-9.894-3.428-9.894-9.55 0-6.12 5.552-9.304 10.184-9.304a14.12 14.12 0 0 1 5.903 1.171v4.07h-.099l-3.646-3.97a7.941 7.941 0 0 0-2.33-.344c-3.97 0-6.928 3.21-6.928 8.252 0 4.725 2.547 8.768 7.001 8.768a12.12 12.12 0 0 0 2.303-.245l3.746-4.116h.099v4.116a15.426 15.426 0 0 1-6.34 1.152zm8.344-.39l1.767-1.324V69.75l-1.767-1.324v-.145h13.897v4.58h-.112l-2.985-3.58h-6.148v7.57h5.685l1.86-2.131h.099v5.486h-.1L152 77.83h-5.684v7.835h6.366l3.011-3.626h.1v4.632h-14.129z" fill="#ed1c24"/><path d="M14.493 56.17C6.923 56.17 0 51.149 0 42.18c0-9.072 8.14-13.625 14.916-13.625a20.746 20.746 0 0 1 8.65 1.72v5.957h-.146l-5.347-5.81a11.647 11.647 0 0 0-3.408-.497c-5.81 0-10.145 4.699-10.145 12.084 0 6.922 3.726 12.838 10.257 12.838a17.318 17.318 0 0 0 3.369-.357l5.486-6.022h.145v6.028a22.632 22.632 0 0 1-9.284 1.675zm12.944-.602l2.58-1.932V31.083l-2.58-1.985v-.212h20.369v6.73h-.14l-4.38-5.234h-9v11.084h8.325l2.72-3.104h.145v8.014h-.145l-2.72-3.474h-8.325v11.475h9.324l4.414-5.294h.146v6.73H27.437zm32.241.245h-7.67v-.245l2.852-2.09V31.995l-3.534-2.898v-.212h6.181l15.314 18.94.867 1.323V31.242l-3.177-2.144v-.212h7.941v.212l-3.123 2.157v24.558H74.11v-.04L56.455 34.042v19.436l3.223 2.091zm37.337 0h-9.43v-.245l2.58-1.932V30.309h-4.77l-4.27 5.406h-.178v-6.803h22.672v6.803h-.145l-4.275-5.406h-4.765v23.354l2.58 1.905zm9.688-.245l2.58-1.932V31.083l-2.58-1.985v-.212h20.37v6.73h-.14l-4.38-5.234h-9v11.084h8.318l2.726-3.104h.146v8.014h-.146l-2.726-3.474h-8.319v11.475h9.324l4.414-5.294h.14v6.73h-20.727zm33.644.245h-9.794v-.245l2.58-1.932V31.083l-2.58-1.985v-.212h10.337c6.995 0 10.76 2.548 10.76 7.28 0 3.586-2.541 6.134-6.168 7.173l6.618 10.112 3.587 2.117v.219h-9.172v-.219l1.257-1.502-6.353-10.151h-4.017v9.748l2.945 1.905zm-2.945-25.504v12.269h2.978c4.302 0 6.922-1.615 6.922-6.24 0-4.309-2.369-6.03-6.67-6.03h-3.23z" fill="#000"/><path d="M.801 61.226h154.906v1.462H.801z" fill="#ed1c24"/></g></svg>